<svg xmlns="http://www.w3.org/2000/svg" viewBox="0 0 2915.51 1527.73"><defs><style>.cls-1{fill:#dbc8cd;}.cls-2{fill:#a02875;}.cls-3{fill:#564d4f;}.cls-4{fill:#fff;}.cls-5{fill:#750643;}.cls-6{fill:#89195c;}.cls-7{fill:#4f0c34;}.cls-8{fill:#f1a34f;}.cls-9{fill:#231f20;}.cls-10{fill:#e9f3fe;}.cls-11{fill:#2b478b;}.cls-12{fill:#233862;}.cls-13{fill:#c65447;}.cls-14{fill:#ffb27d;}.cls-15{fill:#e2915a;}.cls-16{fill:#fcecdb;}.cls-17{fill:#f4d2b8;}.cls-18{fill:#699dee;}.cls-19{fill:#568cdb;}.cls-20{fill:#ed7d2b;}.cls-21{fill:#ed975d;}.cls-22{fill:#ebf3ff;}.cls-23{fill:#2e3552;}</style></defs><title>landingbackground</title><g id="Layer_2" data-name="Layer 2"><g id="Layer_1-2" data-name="Layer 1"><path class="cls-1" d="M194.88,1524.08S-142.6,1161.74,137.8,769.46c248.8-348.06,538.86-324.27,751.68-183,90.64,60.15,352,7.41,574.39-346.75,303.33-483,1354.76-190.06,1163.05,553-92.77,359.6,282.35,372.67,91.21,732.12Z"/><rect class="cls-1" x="295.75" y="1100.27" width="324.59" height="324.59" transform="translate(-733.99 643.75) rotate(-42.63)"/><rect class="cls-2" x="207.98" y="1134.51" width="324.59" height="65.37" transform="translate(-692.6 559.12) rotate(-42.63)"/><polygon class="cls-3" points="1165.05 92.41 1328.82 115.77 1220.14 41.69 1214.62 65.44 1174.79 72.65 1165.05 92.41"/><polygon class="cls-1" points="1328.82 115.77 1192.54 45.5 1058.97 38.79 1328.82 115.77"/><polygon class="cls-1" points="1220.14 41.69 1328.82 115.77 1244.69 0 1220.14 41.69"/><path class="cls-4" d="M2080.82,415.48,2039.63,445l-41.41-29.24a50.7,50.7,0,0,1,82.6-.32Z"/><path class="cls-4" d="M2039.63,322.32a122.42,122.42,0,0,0-100.21,52.08l26.15,18.35a90.55,90.55,0,0,1,147.69-.53l26-18.68A122.53,122.53,0,0,0,2039.63,322.32Z"/><path class="cls-4" d="M2039.63,185.4c-87.61,0-165.09,43.54-212,110.14l26.14,18.35a227.38,227.38,0,0,1,370.84-1.39l25.93-18.67A259,259,0,0,0,2039.63,185.4Z"/><path class="cls-4" d="M2039.63,260.32a185.28,185.28,0,0,0-151.21,78.12l26.14,18.35a153.61,153.61,0,0,1,249.5-1L2190,337.26A185.27,185.27,0,0,0,2039.63,260.32Z"/><path class="cls-5" d="M1185.19,594.85l-37.76-.87c12.13,15.72,14.86,30.21,7.3,42.47-7.55,12.51-25.63,22.78-52.62,30.58A487.89,487.89,0,0,0,989.93,151.69C899.52,61.29,777.31,8.81,645.09,8.81A484.79,484.79,0,0,0,433.85,56.72l-.06,0c-21-6.41-41.41-11.65-61.12-15.65-99.52-20.19-170.14-6.23-198.82,39.3-27.3,43.31-12.44,108.51,41.73,184.54l0,0a490,490,0,0,0-32.32,74.29C81.46,345.35,27,363.26,7.17,395.7c-23,37.77,8.42,88.45,109.08,137.73,13.87,6.81,28.73,13.5,44.33,20.18,12.06,106,60.33,208.67,139.55,287.89a489.3,489.3,0,0,0,155,104.5c177.9,75,390,39.91,534.78-104.5a485.82,485.82,0,0,0,102.52-150.57c49.65-10.28,82.34-26.37,95.34-47.67C1196.83,628.52,1195.72,612.18,1185.19,594.85Zm-116.51,79.86c-33.06,5.94-74.29,9.41-122.46,9.91-74.74.91-160.58-5-251-16.92q11.41-24.86,22.35-51a690.29,690.29,0,0,0,81.29,22.1c29.76,6.05,56.93,9,81.17,9,56.83,0,97.54-16.41,117.65-48.33a83.5,83.5,0,0,0,8.09-16.72h-29c-.48.88-1,1.75-1.52,2.6-14.94,23.71-48.32,36-95.19,36-22.41,0-47.93-2.8-76-8.49a660.62,660.62,0,0,1-76.51-20.7Q738,566,747.88,538.84c17.66-48.69,32.78-97,45-143.3,99.1,14.61,202.64,15,302.1,7.54a462.21,462.21,0,0,1,9.47,93.45A456.62,456.62,0,0,1,1068.68,674.71ZM465.14,916.5c-14.09-5.11-21.24-25.33-24.76-41.39-5.56-25.39-6.57-61.05-2.91-103.12,1.85-21.28,4.82-43.91,8.83-67.57a1254.6,1254.6,0,0,1,170.62,59c-12.54,21.63-25.22,41.68-37.9,59.86-24.17,34.64-47.8,61.36-68.34,77.28C497.68,910.68,479.23,921.61,465.14,916.5ZM629.68,740.82a1279.76,1279.76,0,0,0-178.74-61.9q3.19-16.49,7-33.51,25.24,5.75,51.19,11.1c50.57,10.34,101,19.13,150.42,26.23Q644.89,713.1,629.68,740.82ZM520.28,638.18q-29.31-6-57.73-12.58c8.91-37.08,19.86-75.73,32.64-115.11,66.42,40.83,134,74,197.93,97.62q-12,28.73-24.68,55.91C619.86,657.05,570.15,648.41,520.28,638.18ZM358.05,137.72C395,213.37,466.12,275.69,542.7,317c-18.56,40.42-36.22,83.57-52.47,128.36q-4.55,12.53-8.85,25c-97-63.16-179.2-135.64-233.09-205.79l0,0A461.54,461.54,0,0,1,358.05,137.72ZM773,67.73c14.09,5.11,21.24,25.33,24.76,41.39,5.56,25.39,6.56,61,2.9,103.12-4,46.06-13.22,98.37-26.95,154.06-67.48-11.61-134.92-30.75-197-60.89,26.46-55.18,54.44-104.4,82.42-144.5,24.16-34.64,47.79-61.36,68.33-77.28,10.72-8.31,25.15-17.2,37.78-17.2A22.6,22.6,0,0,1,773,67.73ZM767.27,391.4c-11.91,44.82-26.58,91.5-43.68,138.63q-9.89,27.26-20.43,53.58C639,560,570.8,526.31,503.79,484.66q5.2-15.18,10.73-30.46c15.88-43.79,33.12-85.93,51.19-125.4C629,359.45,697.46,379.24,767.27,391.4Zm202.6-219.77a457.92,457.92,0,0,1,119.1,206c-105.9,7.74-202.94,5.31-289.68-7.24,13.76-56.25,23-109.16,27.1-155.89,4.48-51.6,3.94-112.73-17-147.13A456.68,456.68,0,0,1,969.87,171.63ZM645.09,37a460.5,460.5,0,0,1,93.73,9.55C702.73,62.3,665.88,106,637.91,146.12c-28.63,41-57.22,91.26-84.21,147.48C480.83,254,412,193.31,379.11,121.81A457.78,457.78,0,0,1,645.09,37ZM196.25,94.53c14.94-23.71,48.31-35.94,95.18-35.94,22.42,0,47.93,2.79,76,8.49q16,3.23,32.58,7.61h0c-66.91,38.7-125.85,94.71-169.73,164.92l0,0C188.86,178.15,176.41,126,196.25,94.53ZM234.5,290v0c56.75,70.93,140.4,143.44,238.13,206.33-13.86,42.18-25.68,83.63-35.22,123.35-81-19.6-175.22-47.33-249.6-78.8A457.47,457.47,0,0,1,234.5,290ZM138.79,518.82C51,476,10.88,434.62,28.84,405.28c14.48-23.78,67.23-39.87,148-45.82-16.27,54.93-21.93,112-18.57,168.52C151.54,525,145.1,521.92,138.79,518.82Zm294,120.73q-3.76,16.76-6.94,33-8.44-2.05-16.91-4c-95.3-21.7-166.81-26.11-200-26.85a449.24,449.24,0,0,1-18.07-75.86C255.84,590.85,328.93,614.8,432.8,639.55ZM218.59,667.94c35.36,1.42,100.9,6.77,184.63,25.83q9,2.06,18,4.25c-4.31,25.14-7.49,49.15-9.45,71.73-3.72,42.77-4,92.08,7.94,127.29a461.91,461.91,0,0,1-201.08-229.1ZM505.77,934.53c34-17.81,68.14-58.73,94.44-96.42,13.56-19.45,27.12-41,40.5-64.19a1298,1298,0,0,1,221,127.87A460.14,460.14,0,0,1,505.77,934.53Zm464.1-113.09a455.23,455.23,0,0,1-83.57,66.23A1325.43,1325.43,0,0,0,653.39,751.3c11.21-20.53,22.25-42.21,33-64.84,74.59,9.88,146.29,15.81,211.76,17.35,17.09.49,33.68.49,49.77.37,41.73-.5,78.88-3,110.7-7.43A456.47,456.47,0,0,1,969.87,821.44Z"/><path class="cls-2" d="M959.45,671l-67.45,802s-7.07,48.62,29.09,48.7c59.46.14,295.93,0,295.93,0s-44.74-10.12-44.2-32.89c.64-26.84,78.83-825.38,78.83-825.38Z"/><path class="cls-6" d="M1236.21,1507.09c-11.69,0-237.55.74-295.45,0-25.24-.31-29.66-22.43-29.87-36.75a71.4,71.4,0,0,1,.76-11.94l1.76-20.84,4.47-53.13,4-46.94,5.07-60.31,4.27-50.91L979.1,656.41l292.2-7.59s-32.93,334.19-56.22,577.45c-2.6,27.1-5.08,53.09-7.37,77.35q-1.11,11.61-2.14,22.69c-2.16,23-4.14,44.15-5.86,62.81q-1.35,14.76-2.49,27.35c-3,32.8-4.72,53.75-4.74,57.73a33.33,33.33,0,0,0,.57,6.5C1197.84,1506.26,1231.82,1507.09,1236.21,1507.09Z"/><polygon class="cls-6" points="249.82 234.56 414.11 894.49 436.6 984.87 513.12 1292.24 1934.73 1292.24 1652.69 234.56 249.82 234.56"/><polygon class="cls-7" points="249.81 234.56 227.04 242.15 482.85 1315.2 513.12 1292.24 249.81 234.56"/><polygon class="cls-2" points="482.85 1315.2 1895.71 1315.2 1934.72 1292.24 513.12 1292.24 482.85 1315.2"/><rect class="cls-8" x="979.01" y="1507.41" width="305.9" height="14.54" transform="translate(2263.91 3029.36) rotate(180)"/><polygon class="cls-8" points="1865.86 1097.35 1635.18 248.54 247.54 248.54 247.54 234.56 1652.69 234.56 1882.59 1095.46 1865.86 1097.35"/><polygon class="cls-2" points="1207.15 1315.19 1205.57 1326.31 917.88 1384.43 921.83 1337.49 923.71 1315.19 1207.15 1315.19"/><path class="cls-2" d="M1236.21,1507.09c-11.69,0-237.55.74-295.45,0-25.24-.31-29.66-22.43-29.87-36.75l286.33-53.87c-3,32.8-4.72,53.75-4.74,57.73a33.33,33.33,0,0,0,.57,6.5C1197.84,1506.26,1231.82,1507.09,1236.21,1507.09Z"/><polygon class="cls-5" points="1137.61 1078.13 513.12 1292.24 436.6 984.87 1137.61 1078.13"/><polygon class="cls-9" points="249.81 234.56 1652.69 234.56 1880.31 1084.6 454.21 1084.6 249.81 234.56"/><path class="cls-2" d="M1261.61,1192.06c-4-20.85-24.23-37.75-45.08-37.75s-34.46,16.9-30.41,37.75,24.24,37.75,45.08,37.75S1265.66,1212.91,1261.61,1192.06Z"/><polygon class="cls-10" points="1814.15 1047.77 500.63 1047.77 351.87 455.18 340.48 409.74 330.74 370.98 322.96 339.95 307.93 280.09 1602.51 280.09 1603.42 283.38 1619 339.95 1627.56 370.98 1638.25 409.74 1650.78 455.18 1814.15 1047.77"/><polygon class="cls-1" points="1814.15 1049.79 500.63 1049.79 351.87 457.21 340.48 411.77 330.74 373.01 322.96 341.97 307.93 282.12 1602.51 282.12 1603.42 285.41 1619 341.97 1627.56 373.01 1638.25 411.77 1650.78 457.21 1814.15 1049.79"/><polygon class="cls-5" points="1619 339.95 322.96 339.95 307.93 280.09 1602.02 280.09 1603.42 283.38 1619 339.95"/><path class="cls-10" d="M343.94,310c-1.57-6.28,2.25-11.36,8.53-11.36s12.63,5.08,14.19,11.36-2.25,11.36-8.53,11.36S345.5,316.29,343.94,310Z"/><ellipse class="cls-10" cx="393.05" cy="310.02" rx="10.03" ry="12.87" transform="translate(-99.5 399.41) rotate(-48.55)"/><path class="cls-10" d="M422.34,310c-1.56-6.28,2.25-11.36,8.53-11.36s12.63,5.08,14.19,11.36-2.25,11.36-8.53,11.36S423.91,316.29,422.34,310Z"/><path class="cls-11" d="M909.8,1049.79H779.92c-1.24-10.15-2.34-20.88-3.32-32.07-1.75-20.08-3.08-41.67-4.07-64.14q-.35-7.77-.63-15.67c-.25-6.7-.47-13.48-.66-20.29-.31-11.57-.56-23.27-.74-35,0,0,0,0,0-.05-.22-15-.34-30.11-.37-45.17h0q0-5.64,0-11.26h0c0-3.53,0-7,0-10.55.12-32.4.6-64.18,1.29-93.73,1.5-65.38,3.92-119.86,5.21-146h0c.52-10.76.86-16.73.86-16.73h0c.3.05,2.27.41,5.37,1.16,2.27.55,5.16,1.31,8.44,2.32h0c3,.89,6.24,2,9.68,3.3h0a113.24,113.24,0,0,1,18.09,8.74l.27.13c9.7,6,18.46,14,22.45,24.54,3.43,8.95,11.46,57.06,21.15,121,.28,1.82.55,3.66.83,5.51,5.13,33.93,10.67,72,16.24,110.88,5.9,41.2,11.79,83.28,17.22,122.26C901.91,992.28,906.2,1023.43,909.8,1049.79Z"/><path class="cls-12" d="M873.43,1049.79H722.25c-2.9-12.47-5.61-24.5-8-35.78-6.64-31.1-11-56.59-10.77-70.28a20.52,20.52,0,0,1,6.7-15.31A33.11,33.11,0,0,1,721,922c12.76-4.84,31.08-5.64,50.26-4.41,6.52.4,13.13,1,19.65,1.83a574.18,574.18,0,0,1,69.29,13.25s2.23,9,4.86,24.79c2,11.82,4.19,27.46,5.83,45.94,1,10.72,1.72,22.42,2.15,34.88C873.15,1042.05,873.28,1045.89,873.43,1049.79Z"/><path class="cls-13" d="M803.61,943.91l-1.5,10.92-7.33,53-1.24,9.06L789,1049.79H631.45c-1.22-21.73-2.35-42.9-2.57-61.36,0-2,0-4,0-6,0-27.8,2.44-48.41,10.41-53.61,9-5.9,39-4.28,70.89-.38,3.18.39,6.38.81,9.59,1.24,18.59,2.5,37.2,5.59,52.16,8.25,7.76,1.38,14.54,2.65,19.82,3.65C799.16,943,803.61,943.91,803.61,943.91Z"/><path class="cls-4" d="M628.85,586.36s86.55-56,148.63-27.35c9.9,4.56,21.18,17.29,29.26,26.19C829.18,609.93,873,1002.73,873,1002.73s-124.48,42.16-244.18-14.31Z"/><path class="cls-11" d="M782.41,557.59S870,593.5,881.9,621.1s50.44,197,50.44,216.9-67.16,4.44-78-27.61c-9-26.61-39.26-108.36-55.23-160.06Z"/><path class="cls-14" d="M764.21,585c-19.13,3.75-47.23-.25-67.8-13.81,9.29-22.19,13.09-39.7,14.45-51,.08-.6.14-1.18.2-1.75a52,52,0,0,0,.23-11.69h49.46s13.52,6.18,13.52,10.46c0,2.28,0,4.47.06,6.55.1,5.69.32,10.66.62,14.92.94,13.88,2.53,20.41,2.53,20.41S783.53,581.17,764.21,585Z"/><path class="cls-15" d="M775,538.6c-37.47,7.24-59.21-13.23-64.09-18.49-.69-.75-1.05-1.19-1.05-1.19.4-.2.81-.38,1.25-.56,13.94-5.64,45.59-1.15,63.27,5.32C774.43,529.37,774.65,534.34,775,538.6Z"/><path class="cls-14" d="M698.62,498.54c6.7,36,53.19,34.85,73.28,32.59,5.66-.63,9.22-1.35,9.22-1.35,6.37-1.71,9.93-11.75,11.58-24.9,3.28-26-.86-64.25-5.26-74-6.62-14.71-19.09-30.62-65.91-19.14S690,452.38,698.62,498.54Z"/><path class="cls-12" d="M789.18,410.76c-6.4-8.86-20-19.69-32.29-26.35-26.47-14.33-60.36.45-60.5.51-38.24,16.81-48.23,46.07-28,91.65,21.45,48.2,41.86,42.78,41.86,42.78s-4.33-2.7-3.94-17.72c0-.86.06-1.57.09-2.18a10.09,10.09,0,0,0-3.18-8.22c-4.75-4.24-7.07-17.06-3.09-20.63,4.8-4.31,11.54.92,13.69,4.94a5.88,5.88,0,0,0,8.4,1.86c11.9-7.53,4.17-22.58,15.54-31.79s34.46-1.47,51.52-8.81C811.65,428.48,794,417.43,789.18,410.76Z"/><path class="cls-11" d="M795.33,1049.79H606.87c1.34-39.08,3.08-85.74,4.9-133,.46-12.24,1-24.55,1.42-36.75.22-5.17.41-10.31.61-15.44C618,759.7,622.1,665,623,659.86c2-11.54,3.85-21.38,5.88-29.91,5.91-24.86,13.27-38.48,29.32-50.21,1.56-1.19,14.4-7.65,25.7-13.28,9.24-4.59,17.45-8.59,17.7-8.71h0c1.87.91,3.93,3.51,6.1,7.37a123,123,0,0,1,6.81,15c8.61,22.12,17.91,56,24.37,81.28,0,0,0,.05,0,.08a.08.08,0,0,1,0,0h0c4.16,16.33,7.15,29,8,32.7,1.45,6.16,3.35,18.07,5.6,34.21v.05c3,22,6.68,51.88,10.53,85.77h0c.39,3.49.79,7,1.18,10.56.46,4.07.92,8.17,1.39,12.33h0c.14,1.33.29,2.67.43,4h0c1.48,13.42,3,27.26,4.45,41.35,0,0,0,0,0,.05,1.26,11.61,18.87,20,20.1,31.84.09.86.18,2.61.29,5,.23,5,.5,12.94.83,22.11.13,4.09.28,8.42.44,12.85.69,19.67,1.54,41.22,2.5,51.58,0,.49.09,1.11.12,1.87.12,2.07.21,5.12.29,8.94C795.22,1024.93,795.3,1036.55,795.33,1049.79Z"/><path class="cls-12" d="M666.77,702.15c-.06.24-3,106.09,76.62,119s26.72,16.25,26.72,16.25S620.3,831,617.83,827,666.77,702.15,666.77,702.15Z"/><path class="cls-12" d="M734,866.53s-1.49,1.06-4.36,2.91l-.15.09c-12.15,7.76-48.2,28.89-100.69,43.07q-8.26,2.24-17.07,4.21c.47-12.25,1-24.54,1.43-36.75a152.53,152.53,0,0,1-19.74-2.73c.21-1.61.43-3.22.64-4.83,6.67-2.74,13.31-5.38,19.71-7.88,5.21-2,10.26-4,15-5.78,21.57-8.19,37.55-13.74,37.55-13.74l63.82,20.22Z"/><path class="cls-11" d="M750.93,864.76s-8.2,2-21.25,4.68a.35.35,0,0,0-.14,0c-24.07,4.84-64.55,11.62-100.7,11.26-5.33-.06-10.57-.27-15.64-.67a152.53,152.53,0,0,1-19.74-2.73c-13.21-2.78-24.28-7.5-31.52-14.88C508.17,807.68,591.29,611.09,608.76,592c20.41-22.33,57.65-30.17,78.21-32.86l2.48-.31c7.23-.86,11.87-1,12.13-1h0s-1.61,5.18-4.31,14c-1,3.41-2.27,7.35-3.6,11.75-12.63,41.37-37,122.66-47.75,168.5-3.93,16.78-6,28.8-5.08,32.39C645,800,688.49,808.06,716,811.62c11.48,1.49,20.2,2.19,22.14,2.34l.41,0,1.59,6.53L744,836.17l3.75,15.38Z"/><polygon class="cls-6" points="900.92 959 716.23 951.21 753.7 721.05 938.39 728.83 900.92 959"/><path class="cls-14" d="M738.57,814s35.95-2.51,37.76,5.87c4.2,19.53-30.91,35.57-42.29,34.48S730.3,812.68,738.57,814Z"/><path class="cls-14" d="M928.29,775.57s-34.4-10.75-38.09-3c-8.61,18,21.84,41.76,33.16,43.32S936.64,776.22,928.29,775.57Z"/><path class="cls-12" d="M705.32,546.18s-15.13,7.21-22.71,18.09c0,0,56.54,98.16,56.28,97.24S719.78,558.75,705.32,546.18Z"/><path class="cls-12" d="M775.73,547.56c5,1.88,14.53,11.67,16.69,17.08l6.72,85.69S784.79,587.44,777.48,559A48.88,48.88,0,0,1,775.73,547.56Z"/><path class="cls-13" d="M814.92,723.63s1.46-6.39,9.87-5.64,55.63,3.06,55.63,3.06,9.11-.15,8.27,5.69Z"/><path class="cls-4" d="M760.75,506.67a19.71,19.71,0,0,0,16,3.86c5.86-1,9.15-8.65,9.15-8.65S774.65,499.85,760.75,506.67Z"/><polygon class="cls-4" points="1635.88 578.3 1499.46 578.8 1455.22 409.44 1591.64 408.93 1635.88 578.3"/><polygon class="cls-2" points="1557.81 431.19 1500.61 431.4 1499.95 428.89 1557.15 428.68 1557.81 431.19"/><polygon class="cls-2" points="1566.94 438.15 1495.12 438.42 1494.47 435.91 1566.29 435.64 1566.94 438.15"/><polygon class="cls-2" points="1586.69 472.62 1493.4 472.96 1492.75 470.46 1586.03 470.11 1586.69 472.62"/><polygon class="cls-2" points="1588.85 480.88 1495.56 481.22 1494.91 478.71 1588.19 478.37 1588.85 480.88"/><polygon class="cls-2" points="1591 489.13 1497.72 489.48 1497.06 486.97 1590.35 486.63 1591 489.13"/><polygon class="cls-2" points="1593.16 497.39 1499.88 497.74 1499.22 495.23 1592.5 494.88 1593.16 497.39"/><polygon class="cls-2" points="1595.32 505.65 1502.03 505.99 1501.38 503.49 1594.66 503.14 1595.32 505.65"/><polygon class="cls-2" points="1600.57 525.75 1507.28 526.09 1506.63 523.58 1599.91 523.24 1600.57 525.75"/><polygon class="cls-2" points="1602.72 534 1509.44 534.35 1508.78 531.84 1602.07 531.5 1602.72 534"/><polygon class="cls-2" points="1604.88 542.26 1511.6 542.61 1510.94 540.1 1604.22 539.75 1604.88 542.26"/><polygon class="cls-2" points="1607.04 550.52 1513.75 550.86 1513.1 548.36 1606.38 548.01 1607.04 550.52"/><polygon class="cls-2" points="1609.19 558.78 1515.91 559.12 1515.26 556.61 1608.54 556.27 1609.19 558.78"/><polygon class="cls-4" points="1690.85 788.75 1554.43 789.26 1510.19 619.89 1646.62 619.39 1690.85 788.75"/><polygon class="cls-2" points="1612.78 641.64 1555.58 641.85 1554.92 639.35 1612.13 639.14 1612.78 641.64"/><polygon class="cls-2" points="1621.91 648.6 1550.1 648.87 1549.44 646.36 1621.26 646.1 1621.91 648.6"/><polygon class="cls-2" points="1641.66 683.07 1548.38 683.42 1547.72 680.91 1641.01 680.57 1641.66 683.07"/><polygon class="cls-2" points="1643.82 691.33 1550.53 691.67 1549.88 689.17 1643.16 688.82 1643.82 691.33"/><polygon class="cls-2" points="1645.97 699.59 1552.69 699.93 1552.04 697.43 1645.32 697.08 1645.97 699.59"/><polygon class="cls-2" points="1648.13 707.85 1554.85 708.19 1554.19 705.68 1647.48 705.34 1648.13 707.85"/><polygon class="cls-2" points="1650.29 716.1 1557 716.45 1556.35 713.94 1649.63 713.6 1650.29 716.1"/><polygon class="cls-2" points="1655.54 736.2 1562.25 736.54 1561.6 734.04 1654.88 733.69 1655.54 736.2"/><polygon class="cls-2" points="1657.69 744.46 1564.41 744.8 1563.76 742.29 1657.04 741.95 1657.69 744.46"/><polygon class="cls-2" points="1659.85 752.72 1566.57 753.06 1565.91 750.55 1659.2 750.21 1659.85 752.72"/><polygon class="cls-2" points="1662.01 760.97 1568.72 761.32 1568.07 758.81 1661.35 758.47 1662.01 760.97"/><polygon class="cls-2" points="1664.16 769.23 1570.88 769.58 1570.23 767.07 1663.51 766.73 1664.16 769.23"/><polygon class="cls-4" points="1746.2 1000.62 1609.77 1001.13 1565.53 831.76 1701.96 831.26 1746.2 1000.62"/><polygon class="cls-2" points="1668.12 853.51 1610.92 853.72 1610.26 851.22 1667.47 851.01 1668.12 853.51"/><polygon class="cls-2" points="1677.25 860.47 1605.44 860.74 1604.78 858.23 1676.6 857.97 1677.25 860.47"/><polygon class="cls-2" points="1697 894.94 1603.72 895.29 1603.06 892.78 1696.35 892.44 1697 894.94"/><polygon class="cls-2" points="1699.16 903.2 1605.87 903.54 1605.22 901.04 1698.5 900.7 1699.16 903.2"/><polygon class="cls-2" points="1701.32 911.46 1608.03 911.8 1607.38 909.3 1700.66 908.95 1701.32 911.46"/><polygon class="cls-2" points="1703.47 919.72 1610.19 920.06 1609.53 917.55 1702.82 917.21 1703.47 919.72"/><polygon class="cls-2" points="1705.63 927.97 1612.35 928.32 1611.69 925.81 1704.97 925.47 1705.63 927.97"/><polygon class="cls-2" points="1710.88 948.07 1617.6 948.41 1616.94 945.91 1710.22 945.56 1710.88 948.07"/><polygon class="cls-2" points="1713.04 956.33 1619.75 956.67 1619.1 954.17 1712.38 953.82 1713.04 956.33"/><polygon class="cls-2" points="1715.19 964.59 1621.91 964.93 1621.25 962.42 1714.54 962.08 1715.19 964.59"/><polygon class="cls-2" points="1717.35 972.84 1624.07 973.19 1623.41 970.68 1716.69 970.34 1717.35 972.84"/><polygon class="cls-2" points="1719.51 981.1 1626.22 981.45 1625.57 978.94 1718.85 978.6 1719.51 981.1"/><polygon class="cls-4" points="1566.82 1002.05 1089.68 1003.81 952.36 478.09 1014.51 411.15 1412.09 409.69 1566.82 1002.05"/><polygon class="cls-2" points="1280.66 498.53 1112.5 499.15 1110.57 491.79 1278.73 491.17 1280.66 498.53"/><polygon class="cls-2" points="1307.51 519 1096.38 519.78 1094.46 512.41 1305.58 511.63 1307.51 519"/><polygon class="cls-2" points="1365.56 620.33 1091.33 621.34 1089.4 613.97 1363.63 612.96 1365.56 620.33"/><polygon class="cls-2" points="1371.9 644.6 1097.67 645.62 1095.74 638.25 1369.97 637.24 1371.9 644.6"/><polygon class="cls-2" points="1378.24 668.88 1104.01 669.89 1102.09 662.52 1376.31 661.51 1378.24 668.88"/><polygon class="cls-2" points="1384.58 693.15 1110.35 694.17 1108.43 686.8 1382.65 685.79 1384.58 693.15"/><polygon class="cls-2" points="1390.92 717.43 1116.69 718.44 1114.77 711.08 1388.99 710.06 1390.92 717.43"/><polygon class="cls-2" points="1406.35 776.5 1132.12 777.52 1130.2 770.15 1404.43 769.14 1406.35 776.5"/><polygon class="cls-2" points="1412.69 800.78 1138.46 801.79 1136.54 794.43 1410.77 793.41 1412.69 800.78"/><polygon class="cls-2" points="1419.03 825.06 1144.8 826.07 1142.88 818.7 1417.11 817.69 1419.03 825.06"/><polygon class="cls-2" points="1425.37 849.33 1151.14 850.35 1149.22 842.98 1423.45 841.97 1425.37 849.33"/><polygon class="cls-2" points="1431.71 873.61 1157.49 874.62 1155.56 867.25 1429.79 866.24 1431.71 873.61"/><polygon class="cls-2" points="952.36 478.09 1031.92 477.79 1014.51 411.15 952.36 478.09"/><path class="cls-16" d="M1713.15,1277.17h389.68a54.86,54.86,0,0,1,54.86,54.86v26.24a56.1,56.1,0,0,1-56.1,56.1H1713.15a0,0,0,0,1,0,0V1277.17A0,0,0,0,1,1713.15,1277.17Z"/><path class="cls-9" d="M2489.23,1333.62v20.64a60.09,60.09,0,0,1-60.11,60.1H1701.25a8.71,8.71,0,0,1-8.72-8.71v-3.09a8.71,8.71,0,0,1,8.72-8.71H2145a56,56,0,0,0,12.73-35.59V1332a54.53,54.53,0,0,0-12.08-34.34H1701.25a8.71,8.71,0,0,1-8.72-8.72v-3.08a8.71,8.71,0,0,1,8.72-8.72h731.54a56.38,56.38,0,0,1,56.44,56.45Z"/><path class="cls-9" d="M2487.06,1318.06H2155.89a54.8,54.8,0,0,0-10.29-20.37H1701.25a8.71,8.71,0,0,1-8.72-8.72v-3.08a8.71,8.71,0,0,1,8.72-8.72h731.54A56.46,56.46,0,0,1,2487.06,1318.06Z"/><polygon class="cls-17" points="1713.15 1345.77 1767.05 1348.08 1713.15 1349.46 1713.15 1345.77"/><polygon class="cls-17" points="1713.15 1367.29 1841.37 1369.6 1713.15 1370.99 1713.15 1367.29"/><path class="cls-11" d="M1750.76,1414.08h413.5a55,55,0,0,1,55,55v0a51.68,51.68,0,0,1-51.68,51.68H1750.76a0,0,0,0,1,0,0V1414.08a0,0,0,0,1,0,0Z" transform="translate(3970.05 2934.86) rotate(180)"/><path class="cls-16" d="M2141.82,1414.08h470.6a53.73,53.73,0,0,1,53.73,53.73v.43a52.54,52.54,0,0,1-52.54,52.54h-471.8a0,0,0,0,1,0,0V1414.08A0,0,0,0,1,2141.82,1414.08Z" transform="translate(4807.98 2934.86) rotate(-180)"/><path class="cls-11" d="M2110.4,1520.79h572.1a8,8,0,0,0,8-8h0a8,8,0,0,0-8-8H2110.4a8,8,0,0,0-8,8h0A8,8,0,0,0,2110.4,1520.79Z"/><path class="cls-11" d="M2110.4,1430h572.1a8,8,0,0,0,8-8h0a8,8,0,0,0-8-8H2110.4a8,8,0,0,0-8,8h0A8,8,0,0,0,2110.4,1430Z"/><polygon class="cls-17" points="2666.16 1467.43 2602.59 1469.22 2666.16 1470.31 2666.16 1467.43"/><polygon class="cls-17" points="2666.16 1442.87 2514.92 1444.67 2666.16 1445.75 2666.16 1442.87"/><path class="cls-18" d="M2516.48,1444.31s6.48,4.58,8.62,12.12a17.32,17.32,0,0,1,.68,4.22c.36,10,0,32.67,0,32.67l19.13-11.33,19.09,11.33v-30.71c0-5.81-1.64-11.46-4.68-15.16-1.47-1.79-3.26-3.14-5.29-3.14Z"/><path class="cls-19" d="M2516.48,1444.31s6.48,4.58,8.62,12.12l38.35.45s-1.5-10.79-9.42-12.57Z"/><path class="cls-16" d="M2084.78,1120.68h422.48a62.65,62.65,0,0,1,62.65,62.65v32.87a61.26,61.26,0,0,1-61.26,61.26H2084.78a0,0,0,0,1,0,0V1120.68A0,0,0,0,1,2084.78,1120.68Z" transform="translate(4654.69 2398.14) rotate(180)"/><path class="cls-7" d="M2094.72,1181.51v33.74a39,39,0,0,0,19.8,33.6,39.42,39.42,0,0,0,19.53,5.16h458.8a9.74,9.74,0,0,1,9.74,9.73v4a9.74,9.74,0,0,1-9.74,9.73H1800.26a67.13,67.13,0,0,1-67.13-67.13v-26.62a63,63,0,0,1,63-63h796.69a9.73,9.73,0,0,1,9.74,9.73v4a9.74,9.74,0,0,1-9.74,9.74h-460.2a38,38,0,0,0-27.91,12.17A37.27,37.27,0,0,0,2094.72,1181.51Z"/><polygon class="cls-17" points="2569.91 1199.07 2511.09 1201.71 2569.91 1203.29 2569.91 1199.07"/><polygon class="cls-17" points="2569.91 1162.99 2429.98 1165.63 2569.91 1167.21 2569.91 1162.99"/><path class="cls-6" d="M2431.42,1165.1s9.24,5,12.29,13.15a14.38,14.38,0,0,1,1,4.57c.51,10.85,0,35.43,0,35.43l27.27-12.29,27.19,12.29v-33.31c0-6.29-2.33-12.42-6.67-16.43a11.27,11.27,0,0,0-7.53-3.41Z"/><path class="cls-20" d="M2431.42,1165.1s9.24,5,12.29,13.15l54.64.48s-2.14-11.7-13.42-13.63Z"/><path class="cls-12" d="M2154.78,1062.55c24.18,42.09,54.59,58.33,54.59,58.33h126.54S2136.33,1030.44,2154.78,1062.55Z"/><path class="cls-14" d="M2252,1388.19c3.3,3.78,3.72,8,2.09,12.51a.25.25,0,0,1,0,.07c-3,8.34-13,17.65-24.57,27-1.48,1.19-2.79,2.28-3.94,3.29l-.89.79-.68.62c-10.8,9.95-6.73,12.23-26.14,32.44-22.12,23-37.35,23.43-41.69,21.33-3.66-1.79,3.79-14,12-27.72.4-.66.79-1.33,1.2-2,1.1-1.82,2.19-3.67,3.29-5.51,9.67-16.51,7.18-24.26,4.89-48.84-1.86-20-31.07-111.58-31.07-111.58l42.4-7.3s12.76,72.94,26.83,84.18c7.52,6,15.94,6.06,23.17,10.5.52.31,1,.62,1.51.95C2244.47,1381.59,2248.65,1384.4,2252,1388.19Z"/><path class="cls-12" d="M2252,1388.19c3.3,3.78,3.72,8,2.09,12.51a.25.25,0,0,1,0,.07c-3.69,8.33-13.41,17.59-24.61,26.87-1.46,1.21-2.75,2.32-3.9,3.37l-.89.79-.68.62c-10.8,9.95-6.73,12.23-26.14,32.44-22.12,23-37.35,23.43-41.69,21.33-3.66-1.79,3.79-14,12-27.72a94.17,94.17,0,0,0,39.44-29.06c13.32-17,22.2-38.84,31.27-51.49.52.31,1,.62,1.51.95C2244.47,1381.59,2248.65,1384.4,2252,1388.19Z"/><path class="cls-14" d="M1910.09,1361.71c-2.62,13.09-21.27,10.91-42.11,5.81s-15.89,1-45.55-2.32-38.65-14.34-39.56-18.75c-.81-3.92,13.85-5.3,29.57-7.11q3-.33,6-.71c17.75-2.23,30.75-13.68,46.87-23.08,15.27-8.91,38.06-45.21,38.06-45.21l40.68,3.22s-21.35,32.42-29.6,46.52c-4.86,8.29-4.6,19.25-4,27.72C1910.72,1352.4,1911,1357.1,1910.09,1361.71Z"/><path class="cls-12" d="M1868,1367.52c-20.85-5.09-15.89,1-45.55-2.32s-38.65-14.34-39.56-18.75c-.81-3.92,13.85-5.3,29.57-7.11l.15.31a83.63,83.63,0,0,0,42.48,13.2c20.12.49,41.44-5.28,55.33-5,.32,4.6.62,9.3-.31,13.91C1907.47,1374.8,1888.82,1372.62,1868,1367.52Z"/><path class="cls-12" d="M2066,1101.6l38,102.33,49.65,133.61s13.47,1.3,26.37-2.41c11.88-3.44,25.51-12.42,25.51-12.42s-13.78-143.46-39.5-225.81c-6.59-21.14-14-38.23-22.13-47.86C2104.05,1001.93,2066,1101.6,2066,1101.6Z"/><path class="cls-11" d="M2104.65,939.09c24.91-8,96,2.28,167.34,16.26l15-24.65,154.17-12s50.88,112.82,23,184.7c-4.1,10.57-12.23,17.35-26.1,17.57h-2.25s-91.76,0-121.56,0c-76.67,0-162.26-52.71-173.34-54.92-18.12-3.63-25.37,32.62-43.49,70.68S1927,1305.19,1927,1305.19s-23.4.23-33.07-3.4c-10.39-3.89-14.2-9-14.2-9S2048.46,957.22,2104.65,939.09Z"/><path class="cls-12" d="M2287.85,718.38c54.9,30.23,166.27,92.89,166.85,92.49,0,0,40.94,15.42,64.16,0,38.71-25.71,59.47-94.89-11.32-154.43-35.31-29.7-60.39-36.92-64.2-84.34-2.07-25.72-37.23-110.61-95.65-102.76-4.89.65-34.94,2.06-54.69,12.43C2242.68,508.2,2205.54,706.68,2287.85,718.38Z"/><path class="cls-14" d="M2333.86,692.65c-.24.15,27,9.46,45.24,1.38,17.14-7.57,30.13-35.78,29.87-35.79-7.79-.36-16.36-7.18-22.95-51.92l-3.32,1.19-55.84,20.09s4,17.92,6.66,35C2335.73,676.9,2336.91,690.62,2333.86,692.65Z"/><path class="cls-21" d="M2326.86,627.6s4,17.92,6.66,35c32.08-5.78,44.66-37.73,49.18-55.07Z"/><path class="cls-14" d="M2318.55,645.39s76.39-10.26,69.27-57.74-2.05-80.77-51.13-76.23-55.81,24.07-57.29,40.5S2298.49,646.83,2318.55,645.39Z"/><path class="cls-12" d="M2282.18,525.89s48.91,42.15,82.17,45.55,45.86-7.29,45.86-7.29a129.77,129.77,0,0,1-31.41-42.55,23.38,23.38,0,0,0-19.28-13.79C2335.77,505.76,2290.74,504.83,2282.18,525.89Z"/><path class="cls-12" d="M2312.75,522.12s-16.36,15.82-21.51,27.55c-5,11.32-6.46,38.4-2.5,49.16,0,0-25.49-49.57-11.06-73.65C2293,499.65,2312.75,522.12,2312.75,522.12Z"/><path class="cls-4" d="M2269.53,805.18c2.31,154.64.64,122.33,17.55,137,4.08,3.54,15.54,5.64,30.62,6.64,47.42,3.15,130.77-4.67,133.94-13.43,10.94-30.32,3.22-39.74,12.34-86.16,1-4.94,2.13-10.28,3.51-16.1,7.61-31.89,15-42.73-12-94-24.47-46.4-49.9-84.06-52.19-82.7-64.58,38.34-69.79,6.12-69.79,6.12S2268.4,729.75,2269.53,805.18Z"/><path class="cls-11" d="M2104,1203.93l49.65,133.61s13.47,1.3,26.37-2.41c11.88-3.44,25.51-12.42,25.51-12.42s-13.78-143.46-39.5-225.81Z"/><path class="cls-4" d="M2333.52,662.58s-66.45,11.26-74.25,39.88l-53.73,196.81s33.78,6.07,49.39-9.53,54.31-144.8,54.31-144.8Z"/><path class="cls-22" d="M2317.7,948.82c47.42,3.15,130.77-4.67,133.94-13.43,10.94-30.32,3.22-39.74,12.34-86.16l-22.87-64.41s3.78,71.72-17.37,90.58-86.59,36.42-96.87,52.18C2321.91,935.14,2318.65,942.73,2317.7,948.82Z"/><path class="cls-14" d="M2372,918.66s-46.78-10.42-54.33-6.27-26,19.27-28.31,24.53,16.81-4,23-5.66c4-1.08,14.63,2.6,19.88,4.35,22.07,7.36,35.6,3.58,35.6,3.58Z"/><path class="cls-4" d="M2403.36,656.44s62.81,3.87,84.56,34.2c30.61,42.69,91.33,224.64,56.53,248.91-39.19,27.32-178.37,7.14-178.37,7.14s-4.63-21.64,1.81-32.12,111.17-27.38,116-32.22-60.41-94.24-60.41-108.74S2403.36,656.44,2403.36,656.44Z"/><path class="cls-14" d="M2315.43,925.41s-9.8,12.65-13,14.15a9.65,9.65,0,0,1-5.29,1.14l6.6-11.89Z"/><path class="cls-14" d="M2317.7,912.39l-28.5,13.84s1.21,2,4.72,1.82,12.36-3.39,12.36-3.39Z"/><polygon class="cls-6" points="2302.42 958.93 2076.99 958.93 2009.17 790.3 2234.26 790.3 2302.42 958.93"/><polygon class="cls-20" points="2074.34 952.36 2372.03 952.36 2372.03 958.93 2076.99 958.93 2074.34 952.36"/><path class="cls-4" d="M2133.89,874.62c-1.7-5.93,1.73-10.74,7.66-10.74s12.11,4.81,13.81,10.74-1.73,10.73-7.66,10.73S2135.59,880.54,2133.89,874.62Z"/><path class="cls-3" d="M253.83,1025.16l-4.8,3.33a11.33,11.33,0,0,1-15.74-2.85l-27.92-40.29a11.33,11.33,0,0,1,2.85-15.74l6.88-4.76a2.21,2.21,0,1,1,2.52,3.63l-6.87,4.77a6.89,6.89,0,0,0-1.74,9.58l27.92,40.28a6.89,6.89,0,0,0,9.58,1.74l4.8-3.33a6.89,6.89,0,0,0,1.74-9.58L234.51,985.2a2.21,2.21,0,1,1,3.64-2.52l18.53,26.74A11.31,11.31,0,0,1,253.83,1025.16Z"/><path class="cls-3" d="M284.44,1064.89l-8.61,6c-8,5.54-19.32,3.08-25.25-5.48l-42-60.56a2.22,2.22,0,0,1,3.64-2.53l42,60.57c4.54,6.56,13.11,8.51,19.09,4.37l8.61-6c6-4.15,7.16-12.86,2.61-19.41l-47.81-69c-4.55-6.55-13.11-8.51-19.1-4.37a2.21,2.21,0,1,1-2.52-3.63c8-5.54,19.32-3.08,25.25,5.48l47.82,69C294.1,1047.88,292.43,1059.35,284.44,1064.89Z"/><path class="cls-3" d="M342.19,1381.21l1,8.53a16.66,16.66,0,0,1-14.51,18.53L257.13,1417a16.66,16.66,0,0,1-18.53-14.51l-1.48-12.22a3.26,3.26,0,0,1,6.47-.78l1.48,12.22a10.14,10.14,0,0,0,11.27,8.83l71.59-8.69a10.14,10.14,0,0,0,8.83-11.27l-1-8.53a10.14,10.14,0,0,0-11.27-8.84l-47.52,5.77a3.25,3.25,0,0,1-.78-6.46l47.52-5.77A16.67,16.67,0,0,1,342.19,1381.21Z"/><path class="cls-3" d="M414.89,1368.65l1.86,15.29c1.72,14.2-9.26,27.26-24.47,29.1L284.66,1426.1a3.25,3.25,0,1,1-.79-6.46l107.63-13.06c11.65-1.42,20.07-11.22,18.78-21.85l-1.85-15.3c-1.29-10.63-11.82-18.14-23.47-16.72l-122.59,14.88c-11.65,1.41-20.08,11.21-18.78,21.85a3.26,3.26,0,0,1-6.47.78c-1.72-14.2,9.25-27.25,24.47-29.1l122.58-14.88C399.39,1344.4,413.17,1354.45,414.89,1368.65Z"/><circle class="cls-6" cx="1571.91" cy="368.23" r="9.92" transform="translate(852.37 1813.49) rotate(-76.72)"/><rect class="cls-23" x="15.3" y="1520.03" width="2900.21" height="7.69" rx="3.29"/></g></g></svg>